<svg width="791" height="319" viewBox="0 0 791 319" fill="none" xmlns="http://www.w3.org/2000/svg">
<path d="M64 180.32V149.03H68.368V154.07L67.696 153.692C67.864 152.852 68.34 152.054 69.124 151.298C69.908 150.514 70.86 149.884 71.98 149.408C73.128 148.904 74.304 148.652 75.508 148.652C77.496 148.652 79.26 149.142 80.8 150.122C82.34 151.102 83.558 152.446 84.454 154.154C85.35 155.862 85.798 157.822 85.798 160.034C85.798 162.218 85.35 164.178 84.454 165.914C83.586 167.622 82.382 168.98 80.842 169.988C79.302 170.968 77.566 171.458 75.634 171.458C74.346 171.458 73.1 171.206 71.896 170.702C70.692 170.17 69.67 169.498 68.83 168.686C67.99 167.874 67.472 167.034 67.276 166.166L68.368 165.578V180.32H64ZM74.92 167.468C76.208 167.468 77.356 167.146 78.364 166.502C79.372 165.858 80.17 164.976 80.758 163.856C81.346 162.736 81.64 161.462 81.64 160.034C81.64 158.606 81.346 157.346 80.758 156.254C80.198 155.134 79.414 154.252 78.406 153.608C77.398 152.964 76.236 152.642 74.92 152.642C73.604 152.642 72.442 152.964 71.434 153.608C70.426 154.224 69.628 155.092 69.04 156.212C68.452 157.332 68.158 158.606 68.158 160.034C68.158 161.462 68.452 162.736 69.04 163.856C69.628 164.976 70.426 165.858 71.434 166.502C72.442 167.146 73.604 167.468 74.92 167.468Z" fill="#D2D2D2"/>
<path d="M100.408 171.5C98.2521 171.5 96.3201 171.01 94.6121 170.03C92.9321 169.022 91.6021 167.664 90.6221 165.956C89.6421 164.22 89.1521 162.246 89.1521 160.034C89.1521 157.822 89.6421 155.862 90.6221 154.154C91.6021 152.418 92.9321 151.06 94.6121 150.08C96.3201 149.072 98.2521 148.568 100.408 148.568C102.536 148.568 104.44 149.072 106.12 150.08C107.828 151.06 109.172 152.418 110.152 154.154C111.132 155.862 111.622 157.822 111.622 160.034C111.622 162.246 111.132 164.22 110.152 165.956C109.172 167.664 107.828 169.022 106.12 170.03C104.44 171.01 102.536 171.5 100.408 171.5ZM100.408 167.552C101.724 167.552 102.9 167.23 103.936 166.586C104.972 165.914 105.784 165.018 106.372 163.898C106.96 162.75 107.24 161.462 107.212 160.034C107.24 158.578 106.96 157.29 106.372 156.17C105.784 155.022 104.972 154.126 103.936 153.482C102.9 152.838 101.724 152.516 100.408 152.516C99.0921 152.516 97.9021 152.852 96.8381 153.524C95.8021 154.168 94.9901 155.064 94.4021 156.212C93.8141 157.332 93.5341 158.606 93.5621 160.034C93.5341 161.462 93.8141 162.75 94.4021 163.898C94.9901 165.018 95.8021 165.914 96.8381 166.586C97.9021 167.23 99.0921 167.552 100.408 167.552Z" fill="#D2D2D2"/>
<path d="M120.934 171.08L113.416 149.03L117.784 148.988L123.16 165.494L122.194 165.41L128.032 152.516H130.636L136.516 165.452L135.382 165.536L140.8 149.03H145.168L137.734 171.08H134.752L128.62 157.052L129.586 157.178L123.874 171.08H120.934Z" fill="#D2D2D2"/>
<path d="M158.782 171.5C156.514 171.5 154.498 171.024 152.734 170.072C150.998 169.092 149.626 167.762 148.618 166.082C147.638 164.402 147.148 162.47 147.148 160.286C147.148 158.55 147.428 156.968 147.988 155.54C148.548 154.112 149.318 152.88 150.298 151.844C151.306 150.78 152.496 149.968 153.868 149.408C155.268 148.82 156.78 148.526 158.404 148.526C159.832 148.526 161.162 148.806 162.394 149.366C163.626 149.898 164.69 150.64 165.586 151.592C166.51 152.544 167.21 153.678 167.686 154.994C168.19 156.282 168.428 157.696 168.4 159.236L168.358 161.084H150.34L149.374 157.64H164.62L163.99 158.354V157.346C163.906 156.422 163.598 155.596 163.066 154.868C162.534 154.14 161.862 153.566 161.05 153.146C160.238 152.726 159.356 152.516 158.404 152.516C156.892 152.516 155.618 152.81 154.582 153.398C153.546 153.958 152.762 154.798 152.23 155.918C151.698 157.01 151.432 158.368 151.432 159.992C151.432 161.532 151.754 162.876 152.398 164.024C153.042 165.144 153.952 166.012 155.128 166.628C156.304 167.244 157.662 167.552 159.202 167.552C160.294 167.552 161.302 167.37 162.226 167.006C163.178 166.642 164.2 165.984 165.292 165.032L167.476 168.098C166.804 168.77 165.978 169.358 164.998 169.862C164.046 170.366 163.024 170.772 161.932 171.08C160.868 171.36 159.818 171.5 158.782 171.5Z" fill="#D2D2D2"/>
<path d="M173.102 171.08V149.03H177.47V155.96L177.05 154.28C177.358 153.216 177.876 152.25 178.604 151.382C179.36 150.514 180.214 149.828 181.166 149.324C182.146 148.82 183.154 148.568 184.19 148.568C184.666 148.568 185.114 148.61 185.534 148.694C185.982 148.778 186.332 148.876 186.584 148.988L185.45 153.692C185.114 153.552 184.736 153.44 184.316 153.356C183.924 153.244 183.532 153.188 183.14 153.188C182.384 153.188 181.656 153.342 180.956 153.65C180.284 153.93 179.682 154.336 179.15 154.868C178.646 155.372 178.24 155.974 177.932 156.674C177.624 157.346 177.47 158.088 177.47 158.9V171.08H173.102Z" fill="#D2D2D2"/>
<path d="M199.388 171.5C197.12 171.5 195.104 171.024 193.34 170.072C191.604 169.092 190.232 167.762 189.224 166.082C188.244 164.402 187.754 162.47 187.754 160.286C187.754 158.55 188.034 156.968 188.594 155.54C189.154 154.112 189.924 152.88 190.904 151.844C191.912 150.78 193.102 149.968 194.474 149.408C195.874 148.82 197.386 148.526 199.01 148.526C200.438 148.526 201.768 148.806 203 149.366C204.232 149.898 205.296 150.64 206.192 151.592C207.116 152.544 207.816 153.678 208.292 154.994C208.796 156.282 209.034 157.696 209.006 159.236L208.964 161.084H190.946L189.98 157.64H205.226L204.596 158.354V157.346C204.512 156.422 204.204 155.596 203.672 154.868C203.14 154.14 202.468 153.566 201.656 153.146C200.844 152.726 199.962 152.516 199.01 152.516C197.498 152.516 196.224 152.81 195.188 153.398C194.152 153.958 193.368 154.798 192.836 155.918C192.304 157.01 192.038 158.368 192.038 159.992C192.038 161.532 192.36 162.876 193.004 164.024C193.648 165.144 194.558 166.012 195.734 166.628C196.91 167.244 198.268 167.552 199.808 167.552C200.9 167.552 201.908 167.37 202.832 167.006C203.784 166.642 204.806 165.984 205.898 165.032L208.082 168.098C207.41 168.77 206.584 169.358 205.604 169.862C204.652 170.366 203.63 170.772 202.538 171.08C201.474 171.36 200.424 171.5 199.388 171.5Z" fill="#D2D2D2"/>
<path d="M222.905 171.5C220.889 171.5 219.083 171.01 217.487 170.03C215.919 169.022 214.673 167.664 213.749 165.956C212.825 164.22 212.363 162.246 212.363 160.034C212.363 157.822 212.811 155.862 213.707 154.154C214.631 152.418 215.877 151.06 217.445 150.08C219.013 149.072 220.791 148.568 222.779 148.568C223.871 148.568 224.921 148.75 225.929 149.114C226.965 149.45 227.889 149.926 228.701 150.542C229.513 151.13 230.143 151.788 230.591 152.516C231.067 153.216 231.305 153.93 231.305 154.658L230.045 154.742V140H234.371V171.08H230.045V165.83H230.885C230.885 166.502 230.661 167.174 230.213 167.846C229.765 168.49 229.163 169.092 228.407 169.652C227.679 170.212 226.825 170.66 225.845 170.996C224.893 171.332 223.913 171.5 222.905 171.5ZM223.493 167.762C224.809 167.762 225.971 167.426 226.979 166.754C227.987 166.082 228.771 165.172 229.331 164.024C229.919 162.848 230.213 161.518 230.213 160.034C230.213 158.55 229.919 157.234 229.331 156.086C228.771 154.91 227.987 153.986 226.979 153.314C225.971 152.642 224.809 152.306 223.493 152.306C222.177 152.306 221.015 152.642 220.007 153.314C218.999 153.986 218.201 154.91 217.613 156.086C217.053 157.234 216.773 158.55 216.773 160.034C216.773 161.518 217.053 162.848 217.613 164.024C218.201 165.172 218.999 166.082 220.007 166.754C221.015 167.426 222.177 167.762 223.493 167.762Z" fill="#D2D2D2"/>
<path d="M263.69 171.5C262.738 171.5 261.786 171.346 260.834 171.038C259.91 170.73 259.056 170.324 258.272 169.82C257.516 169.288 256.872 168.714 256.34 168.098C255.836 167.454 255.5 166.81 255.332 166.166L256.424 165.578V170.954H252.098V140H256.424V154.07L255.752 153.692C255.892 153.048 256.2 152.432 256.676 151.844C257.152 151.228 257.754 150.682 258.482 150.206C259.238 149.702 260.05 149.31 260.918 149.03C261.786 148.722 262.668 148.568 263.564 148.568C265.552 148.568 267.316 149.058 268.856 150.038C270.396 151.018 271.614 152.376 272.51 154.112C273.406 155.82 273.854 157.78 273.854 159.992C273.854 162.204 273.406 164.178 272.51 165.914C271.642 167.65 270.438 169.022 268.898 170.03C267.358 171.01 265.622 171.5 263.69 171.5ZM262.976 167.552C264.264 167.552 265.412 167.23 266.42 166.586C267.428 165.914 268.226 165.018 268.814 163.898C269.402 162.75 269.696 161.448 269.696 159.992C269.696 158.564 269.402 157.29 268.814 156.17C268.254 155.022 267.47 154.126 266.462 153.482C265.454 152.838 264.292 152.516 262.976 152.516C261.66 152.516 260.498 152.838 259.49 153.482C258.482 154.126 257.684 155.022 257.096 156.17C256.508 157.29 256.214 158.564 256.214 159.992C256.214 161.448 256.508 162.75 257.096 163.898C257.684 165.018 258.482 165.914 259.49 166.586C260.498 167.23 261.66 167.552 262.976 167.552Z" fill="#D2D2D2"/>
<path d="M281.428 180.74L285.88 170.45L285.922 173.894L274.918 149.03H279.958L286.846 165.242C286.986 165.522 287.154 165.956 287.35 166.544C287.546 167.104 287.714 167.664 287.854 168.224L286.762 168.476C286.986 167.888 287.196 167.3 287.392 166.712C287.616 166.124 287.826 165.536 288.022 164.948L293.776 149.03H298.9L289.828 171.08L286.09 180.74H281.428Z" fill="#D2D2D2"/>
<path d="M399.3 134V64H427.8C431.6 64 435.033 64.9667 438.1 66.9C441.233 68.7667 443.733 71.3333 445.6 74.6C447.467 77.8667 448.4 81.5 448.4 85.5C448.4 89.5 447.467 93.1333 445.6 96.4C443.733 99.6667 441.233 102.3 438.1 104.3C435.033 106.233 431.6 107.2 427.8 107.2H410.1V134H399.3ZM410.1 96.8H427.6C429.4 96.8 431.033 96.3 432.5 95.3C433.967 94.2333 435.133 92.8667 436 91.2C436.933 89.4667 437.4 87.5667 437.4 85.5C437.4 83.4333 436.933 81.5667 436 79.9C435.133 78.2333 433.967 76.9 432.5 75.9C431.033 74.9 429.4 74.4 427.6 74.4H410.1V96.8Z" fill="#CFBAEA"/>
<path d="M460.079 134V81.5H470.479V98L469.479 94C470.212 91.4667 471.446 89.1667 473.179 87.1C474.979 85.0333 477.012 83.4 479.279 82.2C481.612 81 484.012 80.4 486.479 80.4C487.612 80.4 488.679 80.5 489.679 80.7C490.746 80.9 491.579 81.1333 492.179 81.4L489.479 92.6C488.679 92.2667 487.779 92 486.779 91.8C485.846 91.5333 484.912 91.4 483.979 91.4C482.179 91.4 480.446 91.7667 478.779 92.5C477.179 93.1667 475.746 94.1333 474.479 95.4C473.279 96.6 472.312 98.0333 471.579 99.7C470.846 101.3 470.479 103.067 470.479 105V134H460.079Z" fill="#CFBAEA"/>
<path d="M521.765 135C516.632 135 512.032 133.833 507.965 131.5C503.965 129.1 500.798 125.867 498.465 121.8C496.132 117.667 494.965 112.967 494.965 107.7C494.965 102.433 496.132 97.7667 498.465 93.7C500.798 89.5667 503.965 86.3333 507.965 84C512.032 81.6 516.632 80.4 521.765 80.4C526.832 80.4 531.365 81.6 535.365 84C539.432 86.3333 542.632 89.5667 544.965 93.7C547.298 97.7667 548.465 102.433 548.465 107.7C548.465 112.967 547.298 117.667 544.965 121.8C542.632 125.867 539.432 129.1 535.365 131.5C531.365 133.833 526.832 135 521.765 135ZM521.765 125.6C524.898 125.6 527.698 124.833 530.165 123.3C532.632 121.7 534.565 119.567 535.965 116.9C537.365 114.167 538.032 111.1 537.965 107.7C538.032 104.233 537.365 101.167 535.965 98.5C534.565 95.7667 532.632 93.6333 530.165 92.1C527.698 90.5667 524.898 89.8 521.765 89.8C518.632 89.8 515.798 90.6 513.265 92.2C510.798 93.7333 508.865 95.8667 507.465 98.6C506.065 101.267 505.398 104.3 505.465 107.7C505.398 111.1 506.065 114.167 507.465 116.9C508.865 119.567 510.798 121.7 513.265 123.3C515.798 124.833 518.632 125.6 521.765 125.6Z" fill="#CFBAEA"/>
<path d="M581.588 135C576.788 135 572.488 133.833 568.688 131.5C564.955 129.1 561.988 125.867 559.788 121.8C557.588 117.667 556.488 112.967 556.488 107.7C556.488 102.433 557.555 97.7667 559.688 93.7C561.888 89.5667 564.855 86.3333 568.588 84C572.322 81.6 576.555 80.4 581.288 80.4C583.888 80.4 586.388 80.8333 588.788 81.7C591.255 82.5 593.455 83.6333 595.388 85.1C597.322 86.5 598.822 88.0667 599.888 89.8C601.022 91.4667 601.588 93.1667 601.588 94.9L598.588 95.1V60H608.888V134H598.588V121.5H600.588C600.588 123.1 600.055 124.7 598.988 126.3C597.922 127.833 596.488 129.267 594.688 130.6C592.955 131.933 590.922 133 588.588 133.8C586.322 134.6 583.988 135 581.588 135ZM582.988 126.1C586.122 126.1 588.888 125.3 591.288 123.7C593.688 122.1 595.555 119.933 596.888 117.2C598.288 114.4 598.988 111.233 598.988 107.7C598.988 104.167 598.288 101.033 596.888 98.3C595.555 95.5 593.688 93.3 591.288 91.7C588.888 90.1 586.122 89.3 582.988 89.3C579.855 89.3 577.088 90.1 574.688 91.7C572.288 93.3 570.388 95.5 568.988 98.3C567.655 101.033 566.988 104.167 566.988 107.7C566.988 111.233 567.655 114.4 568.988 117.2C570.388 119.933 572.288 122.1 574.688 123.7C577.088 125.3 579.855 126.1 582.988 126.1Z" fill="#CFBAEA"/>
<path d="M643.03 135C639.296 135 636.03 134.133 633.23 132.4C630.496 130.667 628.363 128.233 626.83 125.1C625.363 121.967 624.63 118.233 624.63 113.9V81.5H634.93V111.1C634.93 114.167 635.396 116.833 636.33 119.1C637.33 121.3 638.73 123 640.53 124.2C642.396 125.4 644.63 126 647.23 126C649.163 126 650.93 125.7 652.53 125.1C654.13 124.433 655.496 123.533 656.63 122.4C657.83 121.267 658.763 119.9 659.43 118.3C660.096 116.7 660.43 114.967 660.43 113.1V81.5H670.73V134H660.43V123L662.23 121.8C661.43 124.267 660.063 126.5 658.13 128.5C656.263 130.5 654.03 132.1 651.43 133.3C648.83 134.433 646.03 135 643.03 135Z" fill="#CFBAEA"/>
<path d="M707.477 135C702.61 135 698.243 133.8 694.377 131.4C690.577 129 687.543 125.733 685.277 121.6C683.077 117.467 681.977 112.833 681.977 107.7C681.977 102.567 683.077 97.9333 685.277 93.8C687.543 89.6667 690.577 86.4 694.377 84C698.243 81.6 702.61 80.4 707.477 80.4C712.143 80.4 716.377 81.3667 720.177 83.3C724.043 85.1667 726.977 87.7333 728.977 91L723.277 98C722.21 96.4667 720.843 95.0667 719.177 93.8C717.51 92.5333 715.743 91.5333 713.877 90.8C712.01 90.0667 710.21 89.7 708.477 89.7C705.277 89.7 702.41 90.5 699.877 92.1C697.41 93.6333 695.443 95.7667 693.977 98.5C692.51 101.233 691.777 104.3 691.777 107.7C691.777 111.1 692.543 114.167 694.077 116.9C695.61 119.567 697.643 121.7 700.177 123.3C702.71 124.9 705.51 125.7 708.577 125.7C710.377 125.7 712.11 125.4 713.777 124.8C715.51 124.2 717.177 123.3 718.777 122.1C720.377 120.9 721.877 119.433 723.277 117.7L728.977 124.7C726.843 127.7 723.777 130.167 719.777 132.1C715.843 134.033 711.743 135 707.477 135Z" fill="#CFBAEA"/>
<path d="M745.192 134V68.1H755.492V134H745.192ZM734.292 91.5V81.5H767.692V91.5H734.292Z" fill="#CFBAEA"/>
<path d="M412.6 259V199.4H393V189H443.6V199.4H423.4V259H412.6Z" fill="#CFBAEA"/>
<path d="M468.856 260C463.456 260 458.656 258.867 454.456 256.6C450.323 254.267 447.056 251.1 444.656 247.1C442.323 243.1 441.156 238.5 441.156 233.3C441.156 229.167 441.823 225.4 443.156 222C444.49 218.6 446.323 215.667 448.656 213.2C451.056 210.667 453.89 208.733 457.156 207.4C460.49 206 464.09 205.3 467.956 205.3C471.356 205.3 474.523 205.967 477.456 207.3C480.39 208.567 482.923 210.333 485.056 212.6C487.256 214.867 488.923 217.567 490.056 220.7C491.256 223.767 491.823 227.133 491.756 230.8L491.656 235.2H448.756L446.456 227H482.756L481.256 228.7V226.3C481.056 224.1 480.323 222.133 479.056 220.4C477.79 218.667 476.19 217.3 474.256 216.3C472.323 215.3 470.223 214.8 467.956 214.8C464.356 214.8 461.323 215.5 458.856 216.9C456.39 218.233 454.523 220.233 453.256 222.9C451.99 225.5 451.356 228.733 451.356 232.6C451.356 236.267 452.123 239.467 453.656 242.2C455.19 244.867 457.356 246.933 460.156 248.4C462.956 249.867 466.19 250.6 469.856 250.6C472.456 250.6 474.856 250.167 477.056 249.3C479.323 248.433 481.756 246.867 484.356 244.6L489.556 251.9C487.956 253.5 485.99 254.9 483.656 256.1C481.39 257.3 478.956 258.267 476.356 259C473.823 259.667 471.323 260 468.856 260Z" fill="#CFBAEA"/>
<path d="M523.15 260C518.817 260 514.85 258.8 511.25 256.4C507.717 254 504.883 250.733 502.75 246.6C500.617 242.467 499.55 237.8 499.55 232.6C499.55 227.333 500.617 222.667 502.75 218.6C504.95 214.467 507.883 211.233 511.55 208.9C515.283 206.567 519.45 205.4 524.05 205.4C526.783 205.4 529.283 205.8 531.55 206.6C533.817 207.4 535.783 208.533 537.45 210C539.183 211.4 540.583 213.033 541.65 214.9C542.783 216.767 543.483 218.767 543.75 220.9L541.45 220.1V206.5H551.85V259H541.45V246.5L543.85 245.8C543.45 247.6 542.617 249.367 541.35 251.1C540.15 252.767 538.583 254.267 536.65 255.6C534.783 256.933 532.683 258 530.35 258.8C528.083 259.6 525.683 260 523.15 260ZM525.85 250.5C528.983 250.5 531.75 249.733 534.15 248.2C536.55 246.667 538.417 244.567 539.75 241.9C541.15 239.167 541.85 236.067 541.85 232.6C541.85 229.2 541.15 226.167 539.75 223.5C538.417 220.833 536.55 218.733 534.15 217.2C531.75 215.667 528.983 214.9 525.85 214.9C522.783 214.9 520.05 215.667 517.65 217.2C515.317 218.733 513.45 220.833 512.05 223.5C510.717 226.167 510.05 229.2 510.05 232.6C510.05 236.067 510.717 239.167 512.05 241.9C513.45 244.567 515.317 246.667 517.65 248.2C520.05 249.733 522.783 250.5 525.85 250.5Z" fill="#CFBAEA"/>
<path d="M566.031 259V206.5H576.431V217.7L574.531 218.9C575.065 217.167 575.898 215.5 577.031 213.9C578.231 212.3 579.665 210.9 581.331 209.7C583.065 208.433 584.898 207.433 586.831 206.7C588.831 205.967 590.865 205.6 592.931 205.6C595.931 205.6 598.565 206.1 600.831 207.1C603.098 208.1 604.965 209.6 606.431 211.6C607.898 213.6 608.965 216.1 609.631 219.1L608.031 218.7L608.731 217C609.465 215.467 610.465 214.033 611.731 212.7C613.065 211.3 614.565 210.067 616.231 209C617.898 207.933 619.665 207.1 621.531 206.5C623.398 205.9 625.231 205.6 627.031 205.6C630.965 205.6 634.198 206.4 636.731 208C639.331 209.6 641.265 212.033 642.531 215.3C643.865 218.567 644.531 222.633 644.531 227.5V259H634.131V228.1C634.131 225.1 633.731 222.667 632.931 220.8C632.198 218.867 631.065 217.433 629.531 216.5C627.998 215.567 626.031 215.1 623.631 215.1C621.765 215.1 619.998 215.433 618.331 216.1C616.731 216.7 615.331 217.567 614.131 218.7C612.931 219.833 611.998 221.167 611.331 222.7C610.665 224.167 610.331 225.8 610.331 227.6V259H599.931V227.9C599.931 225.167 599.531 222.867 598.731 221C597.931 219.067 596.765 217.6 595.231 216.6C593.698 215.6 591.831 215.1 589.631 215.1C587.765 215.1 586.031 215.433 584.431 216.1C582.831 216.7 581.431 217.567 580.231 218.7C579.031 219.767 578.098 221.067 577.431 222.6C576.765 224.067 576.431 225.667 576.431 227.4V259H566.031Z" fill="#CFBAEA"/>
</svg>
