<svg width="244" height="245" viewBox="0 0 244 245" fill="none" xmlns="http://www.w3.org/2000/svg">
<path d="M240 194.758V194.758C240 216.713 240 227.69 233.263 234.426C226.527 241.163 215.685 241.163 194.003 241.163C192.173 241.163 190.276 241.163 188.292 241.163" stroke="white" stroke-width="7" stroke-linecap="round"/>
<path d="M4 194.758V194.758C4 216.713 4 227.69 10.7365 234.426C17.4731 241.163 28.3146 241.163 49.9975 241.163C51.8266 241.163 53.7244 241.163 55.7079 241.163" stroke="white" stroke-width="7" stroke-linecap="round"/>
<path d="M240 50.2415V50.2415C240 28.2873 240 17.3101 233.263 10.5736C226.527 3.83704 215.685 3.83704 194.003 3.83704C192.173 3.83704 190.276 3.83704 188.292 3.83704" stroke="white" stroke-width="7" stroke-linecap="round"/>
<path d="M4 50.2415V50.2415C4 28.2873 4 17.3101 10.7365 10.5736C17.4731 3.83704 28.3146 3.83704 49.9975 3.83704C51.8266 3.83704 53.7244 3.83704 55.7079 3.83704" stroke="white" stroke-width="7" stroke-linecap="round"/>
</svg>
