<svg width="107" height="98" viewBox="0 0 107 98" fill="#cacaca" xmlns="http://www.w3.org/2000/svg">
    <path
        d="M77.0169 30.1756C77.0199 29.9189 76.9676 29.6638 76.863 29.4257C76.7588 29.1877 76.604 28.971 76.4078 28.7885C76.2117 28.606 75.9784 28.4612 75.7211 28.3621C75.4638 28.2631 75.188 28.2122 74.9096 28.2122L1.21034 28.3167C-0.119186 28.3167 -0.353292 27.8433 0.507609 26.8962C8.30381 18.5275 16.7116 10.8551 25.7315 3.87893C31.3972 -0.507151 37.38 -0.0267935 44.247 0.0566954C64.8546 0.279591 85.3644 0.425599 105.776 0.495108C106.077 0.495108 106.365 0.605392 106.577 0.801105C106.79 0.997207 106.909 1.26281 106.909 1.53969L107 70.8005C107 71.0793 106.942 71.3539 106.829 71.6082C106.716 71.863 106.551 72.0924 106.342 72.2835L79.6232 96.9092C77.7196 98.6637 76.7752 98.3017 76.7904 95.8231L77.0169 30.1756Z"
        fill="#fff" />
    <path
        d="M48.5362 52L16.4013 52.0517C15.0729 52.0536 13.9975 53.0475 14 54.2715L14.0541 82.788C14.0562 84.012 15.1354 85.0023 16.4638 85L48.5987 84.9483C49.9271 84.9464 51.0021 83.9525 51 82.7285L50.9459 54.212C50.9438 52.9884 49.8646 51.9977 48.5362 52Z"
        fill="#fff" />
</svg>